<svg width="13" height="9" viewBox="0 0 13 9" fill="none" xmlns="http://www.w3.org/2000/svg">
<path d="M8.81855 7.80002V9.00002H0.414062V7.80002C0.414062 7.80002 0.414062 5.40002 4.6163 5.40002C8.81855 5.40002 8.81855 7.80002 8.81855 7.80002ZM6.71742 2.10002C6.71742 1.68468 6.5942 1.27867 6.36332 0.933325C6.13245 0.587981 5.8043 0.318819 5.42037 0.159875C5.03644 0.000931138 4.61397 -0.0406559 4.2064 0.0403731C3.79882 0.121402 3.42443 0.321408 3.13059 0.615098C2.83674 0.908788 2.63663 1.28297 2.55556 1.69033C2.47448 2.09769 2.51609 2.51993 2.67512 2.90366C2.83415 3.28738 3.10346 3.61536 3.44898 3.84611C3.79451 4.07686 4.20074 4.20002 4.6163 4.20002C5.17356 4.20002 5.70798 3.97877 6.10202 3.58495C6.49606 3.19112 6.71742 2.65698 6.71742 2.10002ZM8.78253 5.40002C9.15157 5.68547 9.45355 6.04828 9.6672 6.46293C9.88086 6.87757 10.001 7.33397 10.0192 7.80002V9.00002H12.4205V7.80002C12.4205 7.80002 12.4205 5.62202 8.78253 5.40002ZM8.21823 2.20779e-05C7.80507 -0.0018986 7.40106 0.121541 7.05961 0.354022C7.42427 0.863264 7.62034 1.47379 7.62034 2.10002C7.62034 2.72625 7.42427 3.33678 7.05961 3.84602C7.40106 4.0785 7.80507 4.20194 8.21823 4.20002C8.77548 4.20002 9.30991 3.97877 9.70394 3.58495C10.098 3.19112 10.3193 2.65698 10.3193 2.10002C10.3193 1.54307 10.098 1.00892 9.70394 0.615098C9.30991 0.221272 8.77548 2.20779e-05 8.21823 2.20779e-05Z" fill="#5C5EF5"/>
</svg>
